HIERARCHY
ROOT Hips
{
  OFFSET 90.7885 88.945 -76.2838
  CHANNELS 6 Xposition Yposition Zposition Zrotation Xrotation Yrotation
  JOINT LeftUpLeg
  {
    OFFSET 8.64259 1.95398 -2.38835
    CHANNELS 3 Zrotation Xrotation Yrotation
    JOINT LeftLeg
    {
      OFFSET 43.7702 0 0
      CHANNELS 3 Zrotation Xrotation Yrotation
      JOINT LeftFoot
      {
        OFFSET 40.6238 0 0
        CHANNELS 3 Zrotation Xrotation Yrotation
        JOINT LeftToeBase
        {
          OFFSET 12.7242 0 0
          CHANNELS 3 Zrotation Xrotation Yrotation
          End Site
          {
            OFFSET 0 0 0
          }
        }
      }
    }
  }
  JOINT RightUpLeg
  {
    OFFSET -8.2249 1.95398 -2.59336
    CHANNELS 3 Zrotation Xrotation Yrotation
    JOINT RightLeg
    {
      OFFSET 43.5653 0 0
      CHANNELS 3 Zrotation Xrotation Yrotation
      JOINT RightFoot
      {
        OFFSET 40.6238 0 0
        CHANNELS 3 Zrotation Xrotation Yrotation
        JOINT RightToeBase
        {
          OFFSET 12.7242 0 0
          CHANNELS 3 Zrotation Xrotation Yrotation
          End Site
          {
            OFFSET 0 0 0
          }
        }
      }
    }
  }
  JOINT Spine
  {
    OFFSET 0.165834 0.87714 6.61349
    CHANNELS 3 Zrotation Xrotation Yrotation
    JOINT Spine1
    {
      OFFSET 7.38963 1.71661e-005 0
      CHANNELS 3 Zrotation Xrotation Yrotation
      JOINT Spine2
      {
        OFFSET 11.9445 1.14441e-005 0
        CHANNELS 3 Zrotation Xrotation Yrotation
        JOINT Spine3
        {
          OFFSET 14.7254 4.19617e-005 0
          CHANNELS 3 Zrotation Xrotation Yrotation
          JOINT Spine4
          {
            OFFSET 10.9679 0 0
            CHANNELS 3 Zrotation Xrotation Yrotation
            JOINT RightShoulder
            {
              OFFSET 2.46616 -1.6653 3.69651
              CHANNELS 3 Zrotation Xrotation Yrotation
              JOINT RightArm
              {
                OFFSET 13.0012 0 0
                CHANNELS 3 Zrotation Xrotation Yrotation
                JOINT RightForeArm
                {
                  OFFSET 28.7848 1.52588e-005 0
                  CHANNELS 3 Zrotation Xrotation Yrotation
                  JOINT RightHand
                  {
                    OFFSET 26.5688 1.52588e-005 0
                    CHANNELS 3 Zrotation Xrotation Yrotation
                    End Site
                    {
                      OFFSET 0 0 0
                    }
                  }
                }
              }
            }
            JOINT LeftShoulder
            {
              OFFSET 2.38034 -1.29275 -3.7523
              CHANNELS 3 Zrotation Xrotation Yrotation
              JOINT LeftArm
              {
                OFFSET 16.3182 6.10352e-005 0
                CHANNELS 3 Zrotation Xrotation Yrotation
                JOINT LeftForeArm
                {
                  OFFSET 27.0901 0 0
                  CHANNELS 3 Zrotation Xrotation Yrotation
                  JOINT LeftHand
                  {
                    OFFSET 24.5451 1.52588e-005 0
                    CHANNELS 3 Zrotation Xrotation Yrotation
                    End Site
                    {
                      OFFSET 0 0 0
                    }
                  }
                }
              }
            }
            JOINT Neck
            {
              OFFSET 5.0226 -0.0266342 0
              CHANNELS 3 Zrotation Xrotation Yrotation
              JOINT Head
              {
                OFFSET 6.69363 2.86102e-005 0
                CHANNELS 3 Zrotation Xrotation Yrotation
                End Site
                {
                  OFFSET 0 0 0
                }
              }
            }
          }
        }
      }
    }
  }
}
MOTION
Frames:	15
Frame Time:	0.0416667
-326.987 80.215 333.077 69.703 46.7036 96.8216 -164.032 55.8049 74.2119 -60.037 10.4108 -6.41082 75.5166 6.5721 -0.602409 17.6859 4.64466 -3.80424 170.625 -8.31236 82.3153 -40.395 -17.6364 -5.37852 59.2112 0.00705996 -0.705966 71.7298 -3.82729 -3.37715 2.2877 8.14244 -88.6381 10.539 5.18199 2.24327 -1.12313 5.27567 2.01254 -23.7034 4.26835 3.69837 -3.69077 4.26836 3.69836 92.2113 -17.8653 -107.106 23.7157 -5.14393 -28.4421 4.71687 -8.68487 -20.9464 -32.3406 3.20561 -18.106 -88.9439 -40.5174 78.2393 -26.3745 7.95329 14.1163 17.5999 19.2697 -27.1743 3.59032 -0.236252 -7.16749 48.4859 -9.7353 -2.59808 -18.3879 -7.6595 0.400066 
-319.517 79.3215 325.552 72.5973 50.8563 94.3522 -165.553 48.3216 74.3031 -66.7042 11.4241 -4.70597 83.5323 10.0129 -0.165576 27.1661 5.82333 -7.92745 173.215 -0.882544 82.7119 -63.2492 -19.3436 -4.61034 63.4986 -2.12556 -2.44793 77.1974 -4.53117 -8.36676 1.69121 8.44952 -88.5327 9.92489 4.03697 2.58419 -1.742 4.14674 2.40387 -24.2888 3.07414 3.67786 -4.27617 3.07413 3.67785 90.1516 -22.7583 -109.541 29.9777 -7.8533 -18.1123 -1.26796 -15.6755 -26.2354 -26.3727 1.46448 -15.7448 -89.2753 -46.4507 79.0692 -21.6341 10.3676 -1.05134 20.4766 18.3321 -33.6932 5.30532 -0.40417 -8.93004 49.0406 -11.5121 -6.30939 -16.114 -7.30122 1.53363 
-312.359 79.1767 317.699 73.7005 53.5089 92.6242 -167.941 39.3231 75.8012 -68.3293 7.5475 -4.0123 92.8522 12.0722 -6.94473 30.3841 6.73627 -10.3811 177.662 15.135 82.9061 -86.2612 -9.35419 -3.48002 75.0201 -8.36947 -4.68966 67.9311 -2.80618 -13.4183 1.2507 8.63579 -88.3497 9.549 3.23753 3.02425 -2.12106 3.36744 2.87885 -24.6452 2.17969 3.8567 -4.63256 2.17968 3.85669 89.7885 -26.7611 -108.497 38.0554 -12.0181 -5.11699 0.576046 -17.5601 -24.2257 -27.2544 1.07902 -14.0818 -90.6637 -51.3277 78.0385 -12.1096 16.6803 -23.956 25.0805 20.5122 -40.9437 9.38831 0.132581 -2.9692 47.1871 -12.4108 -9.17694 -13.703 -6.63832 1.49894 
-304.586 79.2828 309.76 76.4442 53.7559 93.1282 -170.036 28.1621 82.4527 -66.6354 7.32156 -3.04161 100.765 13.1377 -12.0503 32.6132 4.41532 -7.63712 -175.072 32.3714 82.8332 -99.3043 -0.0941478 -2.70107 83.4857 -12.9044 -4.14399 49.8442 1.27532 -14.1684 0.8207 8.70399 -88.6226 9.42971 2.25599 2.55739 -2.24148 2.36634 2.45565 -24.7642 1.38351 3.11675 -4.75152 1.38352 3.11676 91.108 -27.7601 -105.367 47.5715 -12.6009 10.8355 -0.820586 -23.118 -24.7453 -28.4638 0.550989 -12.926 -90.7401 -48.4077 77.2599 -3.27117 20.53 -44.8062 32.6695 15.9729 -53.0807 2.07171 0.26113 4.85557 43.1681 -11.0778 -11.7273 -11.2433 -4.41594 1.30598 
-295.931 79.8267 301.744 74.727 57.5096 100.268 -171.891 18.2129 91.6487 -60.7118 11.0133 -0.592882 105.968 15.2294 -11.8657 31.2287 3.93173 -6.46839 -175.847 49.3341 85.5317 -96.851 3.26244 -2.05778 89.6659 -14.9787 -2.01361 24.7398 3.49773 -6.54438 -0.441678 8.42988 -89.4345 10.016 -0.622912 1.17384 -1.65531 -0.570661 1.2001 -24.1888 -0.946903 0.932375 -4.1761 -0.946887 0.932381 92.3728 -24.6785 -103.844 54.0768 -10.1144 28.0508 -7.15392 -27.2228 -31.8847 -27.9735 0.157857 -12.8904 -89.1673 -39.4439 77.5979 -0.23688 15.9052 -56.1881 38.8139 7.79058 -65.2552 4.25311 0.134409 -0.485259 39.3233 -7.55237 -13.7781 -12.1104 -0.716014 3.45816 
-286.035 82.7496 290.95 75.8597 55.7948 103.503 -171.325 2.65318 98.0048 -42.7182 19.8305 0.683272 90.5761 13.8347 0.468779 46.539 1.76027 -8.05242 -177.604 56.3112 89.0463 -78.6481 1.27411 -2.05728 87.2815 -13.1366 -0.521141 11.8673 0.217432 2.79347 -1.44407 8.07826 -90.1339 10.7208 -2.93748 0.00245813 -0.946711 -2.93454 0.131851 -23.5075 -2.8023 -0.881209 -3.49484 -2.80231 -0.881213 92.3963 -21.1144 -105.202 54.0605 -8.3669 42.1371 -12.4524 -25.2714 -39.7204 -27.2728 0.723674 -15.9581 -86.8102 -31.0058 79.6957 -2.54347 11.5417 -55.5021 41.0111 2.96039 -72.2456 11.7172 -0.671595 -9.4216 35.8741 -1.21596 -13.5298 -16.0248 4.5053 4.62026 
-274.557 86.503 278.423 79.4319 49.9521 105.093 -170.769 -13.1757 99.4722 -27.3786 21.1407 2.9478 61.9546 1.76755 5.81565 43.927 4.40507 -11.3665 -179.639 52.1663 96.4063 -52.7355 -4.50469 -1.51748 78.9542 -9.25109 0.826749 18.0811 -0.704993 3.37876 -1.71576 7.93493 -90.9579 10.9853 -3.85956 -1.5408 -0.680583 -3.92362 -1.36924 -23.2434 -3.21804 -2.63021 -3.23073 -3.21802 -2.63021 91.763 -18.4367 -107.913 51.7321 -6.92754 49.2035 -15.9784 -23.4331 -44.8843 -27.9957 1.00953 -17.0173 -85.6312 -26.6313 80.9 -3.29383 13.2707 -48.844 41.8419 -1.21693 -76.9198 8.8678 -0.94828 -13.0513 35.984 4.73649 -10.4048 -22.1344 8.46302 4.65998 
-263.559 87.9187 266.607 80.6219 46.9593 104.115 -172.778 -15.2093 96.8304 -35.1077 25.6709 4.83588 54.6127 -1.91224 5.23097 27.7468 5.49774 -7.64302 179.588 46.5732 97.9775 -40.1991 -10.3484 -1.07208 78.623 -9.88474 -1.79024 18.7752 -0.60742 3.12161 -1.66067 7.73799 -91.2544 11.3599 -3.88938 -2.10889 -0.306632 -3.97837 -1.93551 -22.8599 -3.076 -3.18054 -2.84728 -3.07598 -3.18055 88.8367 -21.2363 -113.239 44.7928 0.786245 49.5257 -14.4835 -21.6493 -45.6451 -31.2305 2.03004 -19.0462 -85.5495 -27.716 81.345 -1.73004 20.5515 -47.3687 42.8468 -3.03227 -77.4828 8.09247 -0.80721 -12.1954 34.8065 7.44429 -6.95988 -23.6134 9.63277 3.18716 
-253.457 87.1042 256.124 85.4505 45.3936 99.1654 -171.917 -8.77598 94.8857 -58.0038 22.4408 3.8535 57.5398 -0.563427 5.5644 33.8895 4.94189 -8.91595 176.871 39.2721 98.4322 -42.7288 -10.0528 -0.103411 74.5859 -7.17531 -1.59104 24.4195 -1.10831 3.31373 -1.336 7.79844 -91.2029 11.2456 -3.21849 -2.07713 -0.422834 -3.30678 -1.9334 -22.9651 -2.44567 -2.94831 -2.95248 -2.44569 -2.94832 90.0528 -25.4309 -108.525 39.7656 2.50587 36.7614 -11.91 -21.2156 -42.9613 -35.3235 2.02917 -16.8546 -87.9451 -39.2638 79.63 4.44222 30.8577 -40.4557 38.7866 -5.91295 -76.5142 8.63041 -0.889015 -12.6461 31.5591 8.38995 -3.15541 -20.7041 9.02267 2.04157 
-243.23 85.8997 246.346 85.7254 43.9841 102.496 -168.998 7.41904 101.954 -82.2478 9.04187 4.38719 65.2335 3.17341 7.26159 32.1615 4.41834 -7.5972 173.748 34.6447 102.103 -50.7554 -13.3263 2.30752 77.0528 -8.63296 -2.18807 15.5609 -1.33046 4.8351 -0.786464 7.66452 -91.8316 11.4944 -2.42052 -3.40375 -0.178508 -2.5679 -3.29405 -22.6838 -1.28662 -3.97301 -2.67113 -1.28662 -3.97302 91.5611 -27.4481 -104.549 37.7027 5.83126 20.1979 -19.2581 -26.2543 -50.3421 -33.2705 1.09843 -16.1468 -88.6811 -51.6147 81.0308 3.36108 38.1083 -26.1463 42.6158 -3.71633 -73.8165 9.4259 -0.921731 -12.386 27.6465 9.65272 3.20515 -15.9712 8.01945 0.299263 
-233.723 84.3762 237.005 88.0483 39.9579 102.058 -169.13 28.9403 100.303 -96.2938 0.631408 5.05051 71.2386 5.85605 7.93896 24.5035 5.80572 -7.05562 175.945 25.7794 103.222 -56.141 -15.7471 1.28654 89.6996 -15.899 -4.64875 14.0434 -1.64184 5.53029 0.120459 7.74691 -91.9135 11.3564 -0.65255 -3.74496 -0.319608 -0.816606 -3.71269 -22.8123 0.502304 -3.76801 -2.79971 0.502312 -3.76802 91.4677 -28.4381 -104.373 37.5311 6.02076 0.175347 -21.2111 -22.8072 -56.4212 -31.3839 1.44651 -17.6048 -87.604 -52.9464 82.8247 -11.3497 35.6864 2.55921 46.6638 -6.38174 -77.6358 11.0227 -0.878492 -10.9755 25.4569 8.37113 6.03328 -14.1514 5.9699 -0.810146 
-223.747 84.7497 226.086 86.9725 39.7058 99.0248 -172.909 44.7934 94.9547 -92.4259 0.346912 4.60265 74.8912 7.64093 8.03932 28.5933 8.44933 -12.1679 177.241 12.3717 99.5391 -51.7613 -12.8386 -1.24479 98.0649 -18.3532 0.128222 16.2414 -1.10559 4.28595 1.00794 7.42536 -91.3598 12.026 1.36204 -2.86684 0.35244 1.23462 -2.92396 -22.1701 2.16037 -2.32536 -2.15746 2.16038 -2.32536 91.9576 -24.3857 -104.877 36.7785 5.50304 -10.4892 -25.6223 -19.5999 -67.682 -37.0193 1.75228 -16.8382 -85.4837 -49.7551 85.4816 -21.634 36.8341 26.1478 40.6931 -15.8771 -85.0368 7.41351 -0.809907 -12.9567 21.4699 3.95197 7.34465 -13.8259 1.76094 -3.03331 
-212.142 89.1331 213.073 90.4862 40.892 91.4675 -175.495 44.022 89.449 -68.1426 -1.45243 1.59777 76.5708 8.18839 4.56164 25.6215 5.81738 -7.45278 174.725 -6.04088 91.1564 -37.8908 -17.9307 -4.43502 80.3274 -10.2819 -3.69203 31.7932 -3.39507 7.89123 2.16286 7.44866 -90.3721 12.0047 4.12471 -1.19105 0.339597 4.06831 -1.3717 -22.2483 4.29164 0.105914 -2.23561 4.29165 0.105914 93.8631 -20.7081 -101.945 37.3604 7.35003 -8.68291 -30.8505 -14.7594 -82.0776 -38.1823 1.28615 -15.2211 -84.9606 -42.4808 85.2438 -27.1294 37.1431 37.5741 41.8765 -21.217 -89.6862 7.17079 -0.990731 -15.1229 16.6372 -4.58592 0.264473 -13.7786 -4.35616 -1.80794 
-199.546 93.9156 199.052 94.4447 41.0224 83.9689 -179.205 32.0237 86.2907 -32.1423 1.72187 -0.715358 67.3335 4.79862 2.72485 29.2662 3.97868 -6.1753 168.497 -17.5725 81.5736 -31.3407 -26.4397 -7.14342 57.1818 1.57431 -2.05902 26.661 -3.2644 7.85393 3.00186 7.57578 -89.5741 11.7238 6.17002 0.194539 0.0676124 6.17261 -0.0782729 -22.5759 5.82521 2.04628 -2.56329 5.82522 2.04627 95.4192 -15.4695 -100.047 38.5931 5.54484 -2.59071 -27.0847 -8.78805 -89.5084 -35.5951 2.54854 -18.7601 -85.1091 -36.766 84.054 -31.6492 33.289 44.6187 44.6619 -24.939 -93.3871 10.5674 -1.25481 -14.6117 11.2578 -10.0234 -6.38367 -14.2344 -8.16554 -1.56678 
-188.172 94.4927 187.02 93.5048 41.3778 87.9331 -179.278 28.1804 89.4865 -15.2784 10.6978 -0.677287 67.0627 4.61831 1.79148 24.5406 0.213118 0.472499 169.698 -20.1123 84.7052 -36.6707 -22.4387 -5.0095 59.3715 0.347537 -1.22723 21.9021 -1.69018 4.79698 2.98599 7.20978 -89.8054 12.4902 6.02598 -0.298783 0.833226 6.00696 -0.564693 -21.8106 5.83619 1.53245 -1.79792 5.83622 1.53245 95.0385 -14.7588 -101.312 38.1836 -0.358479 1.6582 -28.2666 -4.3036 -95.571 -33.5269 2.30591 -18.4576 -85.1526 -37.9946 84.1648 -33.1732 24.5238 50.8317 44.2103 -27.0778 -98.5762 10.8698 -1.27141 -14.6168 5.50844 -9.50428 -9.00608 -12.4974 -7.59435 -1.03091 
